<svg width="25" height="25" viewBox="0 0 25 25" fill="none" xmlns="http://www.w3.org/2000/svg">
<mask id="mask0_856_373" style="mask-type:alpha" maskUnits="userSpaceOnUse" x="0" y="0" width="25" height="25">
<rect x="0.953857" y="0.21936" width="24" height="24" fill="#D9D9D9"/>
</mask>
<g mask="url(#mask0_856_373)">
<path d="M8.20386 16.9694H14.7039V15.4694H8.20386V16.9694ZM8.20386 12.9694H17.7039V11.4694H8.20386V12.9694ZM8.20386 8.96936H17.7039V7.46936H8.20386V8.96936ZM6.26161 20.7194C5.75644 20.7194 5.32886 20.5444 4.97886 20.1944C4.62886 19.8444 4.45386 19.4168 4.45386 18.9116V5.52711C4.45386 5.02194 4.62886 4.59436 4.97886 4.24436C5.32886 3.89436 5.75644 3.71936 6.26161 3.71936H19.6461C20.1513 3.71936 20.5789 3.89436 20.9289 4.24436C21.2789 4.59436 21.4539 5.02194 21.4539 5.52711V18.9116C21.4539 19.4168 21.2789 19.8444 20.9289 20.1944C20.5789 20.5444 20.1513 20.7194 19.6461 20.7194H6.26161ZM6.26161 19.2194H19.6461C19.7231 19.2194 19.7936 19.1873 19.8576 19.1231C19.9218 19.0591 19.9539 18.9886 19.9539 18.9116V5.52711C19.9539 5.45011 19.9218 5.37961 19.8576 5.31561C19.7936 5.25144 19.7231 5.21936 19.6461 5.21936H6.26161C6.18461 5.21936 6.11411 5.25144 6.05011 5.31561C5.98594 5.37961 5.95386 5.45011 5.95386 5.52711V18.9116C5.95386 18.9886 5.98594 19.0591 6.05011 19.1231C6.11411 19.1873 6.18461 19.2194 6.26161 19.2194Z" fill="#F6F6F6"/>
</g>
</svg>
