<svg width="25" height="25" viewBox="0 0 25 25" fill="none" xmlns="http://www.w3.org/2000/svg">
<mask id="mask0_773_159" style="mask-type:alpha" maskUnits="userSpaceOnUse" x="0" y="0" width="25" height="25">
<rect x="0.539307" y="0.719101" width="24" height="24" fill="#D9D9D9"/>
</mask>
<g mask="url(#mask0_773_159)">
<path d="M9.53931 18.7191C8.98931 18.7191 8.51847 18.5233 8.12681 18.1316C7.73514 17.7399 7.53931 17.2691 7.53931 16.7191V4.7191C7.53931 4.1691 7.73514 3.69827 8.12681 3.3066C8.51847 2.91493 8.98931 2.7191 9.53931 2.7191H18.5393C19.0893 2.7191 19.5601 2.91493 19.9518 3.3066C20.3435 3.69827 20.5393 4.1691 20.5393 4.7191V16.7191C20.5393 17.2691 20.3435 17.7399 19.9518 18.1316C19.5601 18.5233 19.0893 18.7191 18.5393 18.7191H9.53931ZM9.53931 16.7191H18.5393V4.7191H9.53931V16.7191ZM5.53931 22.7191C4.98931 22.7191 4.51847 22.5233 4.12681 22.1316C3.73514 21.7399 3.53931 21.2691 3.53931 20.7191V6.7191H5.53931V20.7191H16.5393V22.7191H5.53931Z" fill="#F6F6F6"/>
</g>
</svg>
