<svg width="25" height="25" viewBox="0 0 25 25" fill="none" xmlns="http://www.w3.org/2000/svg">
<mask id="mask0_817_559" style="mask-type:alpha" maskUnits="userSpaceOnUse" x="0" y="0" width="25" height="25">
<rect x="0.0559692" y="0.628052" width="24" height="24" fill="#D9D9D9"/>
</mask>
<g mask="url(#mask0_817_559)">
<path d="M11.056 17.6281H13.056V11.6281H11.056V17.6281ZM12.056 9.62805C12.3393 9.62805 12.5768 9.53222 12.7685 9.34055C12.9601 9.14889 13.056 8.91139 13.056 8.62805C13.056 8.34472 12.9601 8.10722 12.7685 7.91555C12.5768 7.72388 12.3393 7.62805 12.056 7.62805C11.7726 7.62805 11.5351 7.72388 11.3435 7.91555C11.1518 8.10722 11.056 8.34472 11.056 8.62805C11.056 8.91139 11.1518 9.14889 11.3435 9.34055C11.5351 9.53222 11.7726 9.62805 12.056 9.62805ZM12.056 22.6281C10.6726 22.6281 9.37264 22.3656 8.15597 21.8406C6.9393 21.3156 5.88097 20.6031 4.98097 19.7031C4.08097 18.8031 3.36847 17.7447 2.84347 16.5281C2.31847 15.3114 2.05597 14.0114 2.05597 12.6281C2.05597 11.2447 2.31847 9.94472 2.84347 8.72805C3.36847 7.51138 4.08097 6.45305 4.98097 5.55305C5.88097 4.65305 6.9393 3.94055 8.15597 3.41555C9.37264 2.89055 10.6726 2.62805 12.056 2.62805C13.4393 2.62805 14.7393 2.89055 15.956 3.41555C17.1726 3.94055 18.231 4.65305 19.131 5.55305C20.031 6.45305 20.7435 7.51138 21.2685 8.72805C21.7935 9.94472 22.056 11.2447 22.056 12.6281C22.056 14.0114 21.7935 15.3114 21.2685 16.5281C20.7435 17.7447 20.031 18.8031 19.131 19.7031C18.231 20.6031 17.1726 21.3156 15.956 21.8406C14.7393 22.3656 13.4393 22.6281 12.056 22.6281ZM12.056 20.6281C14.2893 20.6281 16.181 19.8531 17.731 18.3031C19.281 16.7531 20.056 14.8614 20.056 12.6281C20.056 10.3947 19.281 8.50305 17.731 6.95305C16.181 5.40305 14.2893 4.62805 12.056 4.62805C9.82264 4.62805 7.93097 5.40305 6.38097 6.95305C4.83097 8.50305 4.05597 10.3947 4.05597 12.6281C4.05597 14.8614 4.83097 16.7531 6.38097 18.3031C7.93097 19.8531 9.82264 20.6281 12.056 20.6281Z" fill="#2E2A37"/>
</g>
</svg>
