<svg width="20" height="20" viewBox="0 0 20 20" fill="none" xmlns="http://www.w3.org/2000/svg">
<mask id="mask0_884_1041" style="mask-type:alpha" maskUnits="userSpaceOnUse" x="0" y="0" width="20" height="20">
<rect width="20" height="20" fill="#D9D9D9"/>
</mask>
<g mask="url(#mask0_884_1041)">
<path d="M9.37516 13.9584H10.6252V9.16671H9.37516V13.9584ZM10.0002 7.74046C10.1909 7.74046 10.3507 7.67594 10.4797 7.54692C10.6088 7.41789 10.6733 7.25803 10.6733 7.06733C10.6733 6.87664 10.6088 6.71678 10.4797 6.58775C10.3507 6.45886 10.1909 6.39442 10.0002 6.39442C9.80947 6.39442 9.64961 6.45886 9.52058 6.58775C9.39155 6.71678 9.32704 6.87664 9.32704 7.06733C9.32704 7.25803 9.39155 7.41789 9.52058 7.54692C9.64961 7.67594 9.80947 7.74046 10.0002 7.74046ZM10.0016 17.9167C8.90662 17.9167 7.87738 17.7089 6.91391 17.2934C5.95044 16.8778 5.11238 16.3139 4.39975 15.6015C3.68711 14.8891 3.12287 14.0514 2.70704 13.0884C2.29134 12.1253 2.0835 11.0964 2.0835 10.0015C2.0835 8.9065 2.29127 7.87726 2.70683 6.91379C3.12238 5.95032 3.68634 5.11226 4.3987 4.39962C5.11107 3.68698 5.94877 3.12275 6.91183 2.70692C7.87489 2.29122 8.90384 2.08337 9.9987 2.08337C11.0937 2.08337 12.1229 2.29115 13.0864 2.70671C14.0499 3.12226 14.8879 3.68622 15.6006 4.39858C16.3132 5.11094 16.8775 5.94865 17.2933 6.91171C17.709 7.87476 17.9168 8.90372 17.9168 9.99858C17.9168 11.0936 17.7091 12.1228 17.2935 13.0863C16.8779 14.0498 16.314 14.8878 15.6016 15.6005C14.8893 16.3131 14.0516 16.8773 13.0885 17.2932C12.1254 17.7089 11.0965 17.9167 10.0016 17.9167ZM10.0002 16.6667C11.8613 16.6667 13.4377 16.0209 14.7293 14.7292C16.021 13.4375 16.6668 11.8612 16.6668 10C16.6668 8.13893 16.021 6.56254 14.7293 5.27087C13.4377 3.97921 11.8613 3.33337 10.0002 3.33337C8.13905 3.33337 6.56266 3.97921 5.271 5.27087C3.97933 6.56254 3.3335 8.13893 3.3335 10C3.3335 11.8612 3.97933 13.4375 5.271 14.7292C6.56266 16.0209 8.13905 16.6667 10.0002 16.6667Z" fill="#37FFA8"/>
</g>
</svg>
